<?xml version="1.0" encoding="UTF-8"?>
<svg version="1.1" xmlns="http://www.w3.org/2000/svg" width="500" height="500">
<path d="M0 0 C165 0 330 0 500 0 C500 165 500 330 500 500 C335 500 170 500 0 500 C0 335 0 170 0 0 Z " fill="#000000" transform="translate(0,0)"/>
<path d="M0 0 C4.40606333 2.57089249 7.60663387 5.33474987 9.64453125 10.08984375 C10.54046655 16.10990026 11.06808604 21.47197508 7.47265625 26.63671875 C2.14007044 33.23632821 -4.17451654 39.04054268 -10.23046875 44.96484375 C-12.71272088 47.39404011 -15.1883456 49.8297165 -17.66015625 52.26953125 C-18.23192596 52.82470428 -18.80369568 53.37987732 -19.39279175 53.95187378 C-20.7518013 55.29365708 -22.05920451 56.68735011 -23.35546875 58.08984375 C-23.35546875 58.74984375 -23.35546875 59.40984375 -23.35546875 60.08984375 C-22.54464844 60.36957031 -21.73382813 60.64929688 -20.8984375 60.9375 C-1.71109409 67.88425646 11.25552701 81.50545789 25.40283203 95.60791016 C27.2954194 97.49059646 29.19843119 99.3623549 31.1015625 101.234375 C32.31705813 102.44335537 33.53192614 103.65296716 34.74609375 104.86328125 C35.59284164 105.69150894 35.59284164 105.69150894 36.45669556 106.53646851 C41.13957308 111.24628458 42.9289496 114.92815527 42.95703125 121.52734375 C42.83561262 126.8483365 42.121505 130.6657121 38.1796875 134.5234375 C33.71846067 138.37383621 30.97537626 139.3725985 25.14453125 139.71484375 C23.3965625 139.85792969 23.3965625 139.85792969 21.61328125 140.00390625 C15.58917307 139.34257395 11.66677812 134.20102592 7.64453125 130.08984375 C6.87206055 129.30465363 6.87206055 129.30465363 6.08398438 128.50360107 C1.39795961 123.72747391 -3.2829849 118.94292805 -7.88574219 114.08642578 C-16.62685694 104.88588535 -25.9788309 95.61929794 -39.30859375 94.265625 C-40.74160732 94.26852649 -42.1752187 94.31334312 -43.60546875 94.40234375 C-44.36778809 94.42796387 -45.13010742 94.45358398 -45.91552734 94.47998047 C-61.63950832 95.31425945 -71.28281062 105.69603772 -81.86328125 116.26171875 C-82.95834591 117.35034024 -84.05355329 118.43881818 -85.14889526 119.52716064 C-87.43337949 121.79973411 -89.71375877 124.07633706 -91.99169922 126.35546875 C-94.89074358 129.25471633 -97.80331126 132.13995068 -100.7196064 135.02183151 C-102.98294021 137.26277882 -105.23697435 139.51290987 -107.48861313 141.76560211 C-108.55774657 142.83239846 -109.63007095 143.89600801 -110.70581436 144.95613861 C-120.82406031 154.94113814 -129.28300555 165.36084679 -129.73046875 180.08984375 C-129.06527241 202.88004889 -107.05237701 218.68647541 -92.20019531 233.65014648 C-90.04898826 235.81922518 -87.90665154 237.99652887 -85.77148438 240.18139648 C-83.1615504 242.85193596 -80.53680405 245.50706194 -77.90122604 248.15228844 C-76.91143209 249.15055139 -75.92671039 250.15387421 -74.94762039 251.16263771 C-67.53551521 258.78742919 -59.39939955 265.36958739 -48.35546875 266.08984375 C-47.70449219 266.14011719 -47.05351562 266.19039063 -46.3828125 266.2421875 C-35.01682087 266.74333352 -25.77354831 262.72851922 -17.31591797 255.29797363 C-15.31740916 253.36272316 -13.36854353 251.38939274 -11.43359375 249.390625 C-10.72571716 248.67376022 -10.01784058 247.95689545 -9.28851318 247.2183075 C-7.05341358 244.95347548 -4.82862664 242.67889415 -2.60546875 240.40234375 C-0.36711265 238.11604009 1.87350268 235.83213449 4.12042236 233.554245 C5.5113353 232.14368499 6.8972977 230.72822095 8.27752686 229.3072052 C13.44771761 224.05646994 17.28866194 220.66509889 24.95703125 220.52734375 C30.57352442 220.65455764 33.78980026 221.68202521 38.05859375 225.2890625 C41.68237876 229.40375434 43.06207075 232.5184783 43.01953125 238.02734375 C43.02726563 239.02636719 43.035 240.02539062 43.04296875 241.0546875 C42.02549208 248.80546568 36.77104356 253.43071041 31.49609375 258.70703125 C30.68772064 259.52301788 29.87934753 260.33900452 29.04647827 261.17971802 C27.33385228 262.90313195 25.6172517 264.62260405 23.89697266 266.33837891 C21.29919689 268.93518914 18.72341192 271.55247894 16.1484375 274.171875 C4.51072337 285.89413326 -6.18635736 295.3955856 -22.35546875 300.08984375 C-23.32613281 300.38761719 -24.29679688 300.68539063 -25.296875 300.9921875 C-44.26583561 306.14395778 -63.27559563 303.04236468 -80.30859375 293.421875 C-89.72194869 287.59639714 -97.23962849 280.62804776 -104.54296875 272.33984375 C-108.38956827 268.03470919 -112.47079495 264.19347023 -116.80078125 260.3828125 C-123.1273425 254.7043852 -128.99253879 248.67858628 -134.35546875 242.08984375 C-136.75813467 239.63503316 -139.19380489 237.23946312 -141.71484375 234.90625 C-152.55124972 224.68957313 -159.21401743 213.36038686 -163.35546875 199.08984375 C-163.90074219 197.24326172 -163.90074219 197.24326172 -164.45703125 195.359375 C-169.08728681 176.25357457 -164.36957053 157.13825097 -154.80859375 140.53125 C-148.29897946 130.80313599 -139.08380462 122.66888279 -130.83081055 114.41992188 C-129.59441252 113.18052492 -128.35821736 111.94092556 -127.12220764 110.70114136 C-123.79440938 107.36458266 -120.46344435 104.0312036 -117.13158393 100.69870186 C-115.047961 98.61436495 -112.96505303 96.5293163 -110.88239479 94.4440155 C-103.61185846 87.16425868 -96.3387753 79.88705779 -89.06323242 72.61230469 C-82.28581598 65.83549115 -75.51402161 59.05309507 -68.74478406 52.26811266 C-62.92139949 46.43166702 -57.09418082 40.59906845 -51.26394206 34.76946974 C-47.78629306 31.29207574 -44.31021628 27.81314484 -40.8379879 24.33033752 C-37.57967672 21.06236728 -34.31662879 17.79920315 -31.04984093 14.53970718 C-29.85163217 13.34254634 -28.65513382 12.1436708 -27.46046829 10.94297409 C-25.8313463 9.30615997 -24.19619973 7.67561175 -22.55937195 6.04650879 C-21.18868577 4.67500546 -21.18868577 4.67500546 -19.79030895 3.27579498 C-14.18453484 -1.75695781 -7.10117674 -2.74390411 0 0 Z " fill="#FCFCFC" transform="translate(293.35546875,69.91015625)"/>
<path d="M0 0 C1.74731918 -0.01919243 1.74731918 -0.01919243 3.52993774 -0.03877258 C4.79914566 -0.03741302 6.06835358 -0.03605347 7.37602234 -0.03465271 C8.73322886 -0.04363451 10.09042773 -0.05384373 11.44761658 -0.06518555 C15.12753349 -0.09164938 18.80724102 -0.09871751 22.48724389 -0.10063291 C24.78877125 -0.10276786 27.09024568 -0.10917733 29.39175987 -0.11712456 C37.42805221 -0.14486762 45.46419542 -0.15713159 53.50053406 -0.1547699 C60.98009684 -0.15296855 68.45900981 -0.18460748 75.9384082 -0.23200089 C82.369185 -0.27129089 88.79974999 -0.28731893 95.23064584 -0.28540367 C99.06744156 -0.28464045 102.90365978 -0.29309533 106.74033546 -0.32493782 C110.35138098 -0.35409016 113.96130135 -0.35414766 117.5723877 -0.33238792 C119.51986166 -0.32778021 121.46733634 -0.35271803 123.41464233 -0.37870789 C130.18500332 -0.30609919 134.49052397 0.31490951 139.70799541 4.79077244 C143.84170893 9.32664596 144.70354456 14.35374288 144.45292664 20.26832581 C143.67185731 26.27485896 140.32150626 29.50289969 135.89433289 33.20191956 C132.57784902 35.5159208 129.60406699 35.53146281 125.69210815 35.54830933 C124.55233017 35.55546463 123.41255219 35.56261993 122.23823547 35.56999207 C120.98674713 35.57268097 119.73525879 35.57536987 118.44584656 35.57814026 C117.12856064 35.58471146 115.81127472 35.59128265 114.45407104 35.59805298 C110.08391027 35.61907655 105.7137492 35.62945315 101.34355164 35.63941956 C99.83831069 35.64346762 98.33306993 35.64758456 96.82782936 35.65176964 C89.75638262 35.67081687 82.6849463 35.68504938 75.61347884 35.69338161 C67.45362346 35.70315538 59.29403925 35.72948029 51.13427943 35.7698825 C44.82504554 35.800049 38.51588936 35.81485094 32.20658475 35.81816262 C28.43923839 35.82051235 24.67218188 35.82946241 20.90491295 35.85462379 C17.35978246 35.87791948 13.81513236 35.88213212 10.26994514 35.87186241 C8.35309357 35.87113172 6.43626631 35.89021212 4.51951599 35.90992737 C-1.8780062 35.87123918 -6.01650598 35.81548436 -10.82441711 31.40113831 C-15.5722539 25.99387975 -17.39729173 22.50286628 -17.27363586 15.33082581 C-16.53150057 10.49081304 -14.18493201 6.90015598 -10.82441711 3.40113831 C-7.09282986 0.75890528 -4.55121502 0.02265406 0 0 Z " fill="#B3B1B0" transform="translate(238.8244171142578,232.59886169433594)"/>
<path d="M0 0 C5.17946257 2.40905236 8.48255086 5.89017763 11 11 C11.3984375 13.90234375 11.3984375 13.90234375 11.375 16.9375 C11.38273438 17.93652344 11.39046875 18.93554688 11.3984375 19.96484375 C10.38096083 27.71562193 5.12651231 32.34086666 -0.1484375 37.6171875 C-1.36099716 38.84116745 -1.36099716 38.84116745 -2.59805298 40.08987427 C-4.31067897 41.8132882 -6.02727955 43.5327603 -7.74755859 45.24853516 C-10.34533436 47.84534539 -12.92111933 50.46263519 -15.49609375 53.08203125 C-27.13380788 64.80428951 -37.83088861 74.30574185 -54 79 C-55.45599609 79.44666016 -55.45599609 79.44666016 -56.94140625 79.90234375 C-74.89077333 84.77720314 -92.44142713 82.17707302 -109 74 C-112.10472101 72.13276354 -115.08102885 70.14500153 -118 68 C-115.50787318 66.75393659 -114.13618789 67.09451148 -111.375 67.3125 C-106.26094055 67.35690573 -103.46619454 66.0873686 -99.62890625 62.76171875 C-95.06907739 57.83010528 -94.67606896 52.72468424 -94.796875 46.33203125 C-94.98956072 44.11985094 -95.39230758 42.13182423 -96 40 C-91 42 -91 42 -88.5625 43.0625 C-79.32278874 46.44288217 -69.00949762 45.76976348 -60 42 C-53.53088759 38.20009685 -48.27703112 33.67115619 -43.078125 28.30078125 C-42.37024841 27.58391647 -41.66237183 26.8670517 -40.93304443 26.12846375 C-38.69794483 23.86363173 -36.47315789 21.5890504 -34.25 19.3125 C-32.0116439 17.02619634 -29.77102857 14.74229074 -27.52410889 12.46440125 C-26.13319595 11.05384124 -24.74723355 9.6383772 -23.36700439 8.21736145 C-16.09203941 0.82906244 -10.5567192 -1.57905088 0 0 Z " fill="#F49C1B" transform="translate(325,291)"/>
<path d="M0 0 C2.38356088 0.92860858 4.76457865 1.86300515 7.14453125 2.80078125 C7.81230591 3.06024536 8.48008057 3.31970947 9.16809082 3.58703613 C25.98651114 10.23928987 38.18335809 23.98299143 50.75830078 36.51806641 C52.65088815 38.40075271 54.55389994 40.27251115 56.45703125 42.14453125 C57.67252688 43.35351162 58.88739489 44.56312341 60.1015625 45.7734375 C60.6660611 46.32558929 61.23055969 46.87774109 61.81216431 47.44662476 C66.49504183 52.15644083 68.28441835 55.83831152 68.3125 62.4375 C68.19108137 67.75849275 67.47697375 71.57586835 63.53515625 75.43359375 C59.07392942 79.28399246 56.33084501 80.28275475 50.5 80.625 C49.3346875 80.72039062 48.169375 80.81578125 46.96875 80.9140625 C40.94464182 80.2527302 37.02224687 75.11118217 33 71 C32.48501953 70.47653992 31.97003906 69.95307983 31.43945312 69.41375732 C26.75342836 64.63763016 22.07248385 59.8530843 17.46972656 54.99658203 C8.72861181 45.7960416 -0.62336215 36.52945419 -13.953125 35.17578125 C-15.38613712 35.17932592 -16.81971188 35.22411325 -18.25 35.3125 C-19.00941895 35.33521973 -19.76883789 35.35793945 -20.55126953 35.38134766 C-26.58457457 35.68436682 -31.68763556 37.07713282 -37 40 C-38.33240997 40.6685102 -39.66547193 41.33572818 -41 42 C-39.30220706 38.49830206 -37.26562348 36.23939333 -34.33398438 33.76928711 C-30.25922601 30.26320242 -26.43998872 26.56940334 -22.65625 22.75390625 C-21.67440735 21.76994118 -21.67440735 21.76994118 -20.67272949 20.76609802 C-18.61276177 18.70059855 -16.55632634 16.63162405 -14.5 14.5625 C-13.0913795 13.14885566 -11.68252733 11.73544214 -10.2734375 10.32226562 C-6.84627867 6.88416851 -3.42227981 3.44295344 0 0 Z " fill="#F49D1B" transform="translate(268,129)"/>
<path d="M0 0 C0.66 0.66 1.32 1.32 2 2 C-2.75831827 6.83432222 -7.52831131 11.65689214 -12.30664062 16.47143555 C-13.93110635 18.11099673 -15.55287055 19.75323914 -17.171875 21.39819336 C-19.49816805 23.76083474 -21.83397504 26.1136942 -24.171875 28.46484375 C-24.89493835 29.20339096 -25.61800171 29.94193817 -26.36297607 30.7028656 C-27.38358124 31.72381065 -27.38358124 31.72381065 -28.42480469 32.76538086 C-29.31749054 33.66805946 -29.31749054 33.66805946 -30.22821045 34.588974 C-32.15959895 36.12710216 -33.58661959 36.59539997 -36 37 C-31.82222235 32.01407125 -27.46872723 27.33295716 -22.8515625 22.75390625 C-22.19417084 22.09792953 -21.53677917 21.44195282 -20.85946655 20.76609802 C-18.78367138 18.69584732 -16.70440573 16.62912349 -14.625 14.5625 C-13.2067992 13.14932138 -11.78882824 11.73591206 -10.37109375 10.32226562 C-6.91671223 6.87883935 -3.4592163 3.43856901 0 0 Z " fill="#E1A550" transform="translate(268,129)"/>
</svg>
